<svg width="1399" height="1024" viewBox="0 0 1399 1024" fill="none" xmlns="http://www.w3.org/2000/svg">
<path id="bg-squiggle" d="M-4.99995 718C20.5314 719.289 52.0272 719.377 84.9173 717.307C84.7481 710.192 84.9686 703.543 85.5 697.5C72.5457 607.451 62.4964 404.643 119.056 279.846C68.6189 207.647 45.3927 133.259 155 138C196.876 139.811 232.302 151.645 261.998 169.416C349.777 163.323 470.521 211.644 639 276C667.781 286.994 690.508 298.857 708.057 311.305C679.272 243.446 644.17 195.07 607.89 161.3C553.486 172.844 491.071 178.439 427 170C278.2 150.4 365 110.5 427 93C469.637 86.3494 540.779 98.8318 607.89 161.3C679.835 146.035 737.77 120.367 767 103C776.631 101.733 786.554 100.502 796.692 99.3253C799.856 87.6962 803.126 75.9215 806.5 64C878.5 -190.4 1143.5 -74 1267 16C1353.83 72.1666 1485.3 270.6 1316.5 615C1147.7 959.4 961.5 853.167 889.5 757C814.833 658.167 737.6 416.6 1026 241C1300.95 73.5896 1003.93 75.2648 796.692 99.3253C772.035 189.948 753.81 271.732 742.929 345.301C763.342 374.976 761.659 406.329 747.695 436.168C747.797 436.611 747.898 437.055 748 437.5C769.127 530.022 765.162 587.457 746.05 620.908C756.522 661.761 772.678 697.848 795 729.5C889.5 863.5 1033.5 805 982.5 994C941.7 1145.2 720.167 1129.67 614.5 1103C534.5 1121.5 381.2 1105.3 408 892.5C424.051 765.048 477.014 677.749 530.129 623.103C485.108 602.809 446.001 580.159 427 571C371.4 544.2 380.5 423.167 392 366C382.096 312.324 343.776 218.356 261.998 169.416C205.196 173.359 162.198 200.087 129 260C125.477 266.358 122.166 272.984 119.056 279.846C140.956 311.196 167.986 342.133 191.5 366C220 402.333 280.5 500.9 294.5 604.5C305.117 683.068 188.15 710.813 84.9173 717.307C86.6054 788.292 127.079 905.642 284.5 930C501 963.5 476.5 1355 239.5 1174.5C2.50006 994 -129 821 -4.99995 718Z" fill="#E3FFDA"/>
</svg>
