<svg width="79" height="82" viewBox="0 0 79 82" fill="none" xmlns="http://www.w3.org/2000/svg">
<g id="duck">
<path id="Vector 3" d="M44.5037 67.6716C50.7575 67.6716 48.6008 56 48.6008 56H53.6008C53.6008 56 54.8743 74.2035 47.0882 80.4324C43.8979 82.9847 35.2476 79.4378 40.4655 75.2635C40.6265 75.1347 40.8165 75.028 41.0283 74.9404H38.6887C33.3976 74.9404 36.2918 72.8991 39.4405 71.6083C37.6621 71.1657 35.9163 70.6754 34.3274 70.5791C30.7656 70.3633 31.7192 67.8165 34.3274 67.6716C37.6984 67.4843 41.1256 67.6716 44.5037 67.6716Z" fill="#D9B700"/>
<path id="Vector 1" d="M13.3739 11.0211C14 6 18.4487 1.04746 22.0965 0.844806C27.5016 0.544521 30.8553 5.69643 32.192 10.375C33.5039 14.9666 31.7885 25.1147 36.6341 28.1432C43.0213 32.1352 51.3609 37.6792 56.9867 30.6469C60.2407 26.5795 60.3979 21.5015 63.9325 17.9669C65.8768 16.0226 66.6748 19.3446 66.9918 22.4767C67.0576 20.8135 67.5378 19.4232 69.3437 19.8245C70.2542 20.0268 70.8211 21.0395 71.1646 22.2798C72.4478 19.0145 75.1741 16.8898 77.4202 24.7511C79.1042 30.6453 77.3394 34.8381 77.3394 40.8233C77.3394 44.7124 70.0913 55.8443 65.7093 56.0878C51.5492 56.8744 33.9684 58.4295 23.2272 47.6882C20.3139 44.775 16.2814 39.4538 16.2814 35.0082C16.2814 30.9842 18.5612 20.9779 14.8277 21.1975C11.3605 21.4014 0.290039 19.1937 0.290039 14.6555C0.290039 7.58738 13.3739 18.7379 13.3739 11.0211Z" fill="#0019F8"/>
<path id="Vector 2" d="M20.6426 11.0211C19.208 11.2005 18.7541 13.5558 19.5119 12.798C20.6273 11.6826 20.5925 8.53977 19.1889 10.2943C16.2826 13.9271 20.6426 15.3686 20.6426 9.56738" stroke="black" stroke-width="3" stroke-linecap="round"/>
</g>
</svg>
